<svg xmlns="http://www.w3.org/2000/svg" viewBox="0 0 100 120" role="img"><polygon points="50,0 56,15 44,15" fill="#2a5f94"/><polygon points="44,15 56,15 62,30 38,30" fill="#1a4a7a"/><polygon points="38,30 62,30 68,45 32,45" fill="#0f355f"/><polygon points="32,45 68,45 74,60 26,60" fill="#08284a"/><polygon points="26,60 74,60 80,75 20,75" fill="#051c35"/><polygon points="20,75 80,75 86,90 14,90" fill="#d4b05a"/><polygon points="14,90 86,90 92,105 8,105" fill="#c9a045"/><polygon points="8,105 92,105 98,120 2,120" fill="#b98421"/><g stroke="#ffffff" stroke-width="0.9"><line x1="44" y1="15" x2="56" y2="15"/><line x1="38" y1="30" x2="62" y2="30"/><line x1="32" y1="45" x2="68" y2="45"/><line x1="26" y1="60" x2="74" y2="60"/><line x1="20" y1="75" x2="80" y2="75"/><line x1="14" y1="90" x2="86" y2="90"/><line x1="8" y1="105" x2="92" y2="105"/></g></svg>